# xmcd CD database file generated by MAGIX-FreeDB-MP3_Maker_15 v2.0beta1
# 
# Track frame offsets:
#      150
#      11067
#      34227
#      72210
#      124785
#      159217
#      176332
#      200847
#      224137
#      257375
#      279812
#      322497
# 
# Disc length: 4320 seconds
# 
# Revision: 0 
# Processed by: cddbd v1.5.2PL0 Copyright (c) Steve Scherf et al.
# Submitted via: MAGIX-FreeDB-MP3_Maker_15 v2.0beta1
# 
DISCID=b110de0c
DTITLE=Luther Allison - Live In Montreux: (1976-1997)
DYEAR=1900
DGENRE=Blues
TTITLE0=Luther Allison - Introduction
TTITLE1=Luther Allison - Sweet Home Chicago
TTITLE2=Luther Allison - Same Thing
TTITLE3=Luther Allison - Little Red Rooster
TTITLE4=Luther Allison - Sky Is Crying
TTITLE5=Luther Allison - Back Down South
TTITLE6=Luther Allison - Memories
TTITLE7=Luther Allison - Spontaneous Improvisation
TTITLE8=Luther Allison - Bad News Is Coming
TTITLE9=Luther Allison - Put Your Money Where Your Mouth Is
TTITLE10=Luther Allison - Bad Love
TTITLE11=Luther Allison - Audience
EXTD=
EXTT0=
EXTT1=
EXTT2=
EXTT3=
EXTT4=
EXTT5=
EXTT6=
EXTT7=
EXTT8=
EXTT9=
EXTT10=
EXTT11=
PLAYORDER=
